<?xml version="1.0" standalone="no"?>
<!DOCTYPE svg PUBLIC "-//W3C//DTD SVG 20010904//EN"
 "http://www.w3.org/TR/2001/REC-SVG-20010904/DTD/svg10.dtd">
<svg version="1.0" xmlns="http://www.w3.org/2000/svg"
 width="512.000000pt" height="512.000000pt" viewBox="0 0 512.000000 512.000000"
 preserveAspectRatio="xMidYMid meet">
<metadata>
Created by potrace 1.14, written by Peter Selinger 2001-2017
</metadata>
<g transform="translate(0.000000,512.000000) scale(0.100000,-0.100000)"
fill="#000000" stroke="none">
<path d="M485 5100 c-182 -49 -333 -170 -413 -331 -74 -149 -71 -106 -72
-1216 l0 -993 640 0 640 0 0 -635 c0 -349 -2 -635 -5 -635 -3 0 -289 283 -635
630 -346 347 -632 630 -635 630 -3 0 -5 -571 -5 -1270 0 -698 2 -1270 5 -1270
3 0 291 286 640 635 l635 635 1618 1 c889 0 1639 2 1666 5 123 12 266 84 365
183 75 75 121 147 159 253 l27 73 3 1663 2 1662 -2282 -1 c-2190 -1 -2286 -2
-2353 -19z m2244 -791 c63 -2 152 -14 239 -33 168 -36 384 -162 507 -295 l30
-32 -44 -39 c-24 -22 -79 -73 -121 -113 -43 -41 -82 -77 -87 -80 -5 -3 -34 17
-64 44 -104 95 -248 165 -385 188 -60 10 -252 7 -313 -4 -61 -12 -188 -61
-247 -96 -75 -44 -199 -168 -243 -242 -141 -240 -141 -574 0 -813 44 -75 168
-199 243 -243 58 -35 184 -83 247 -96 71 -14 278 -14 341 1 149 35 270 99 363
193 22 22 44 40 49 41 5 0 43 -33 85 -74 42 -41 98 -94 126 -119 l49 -45 -39
-44 c-137 -151 -394 -278 -616 -304 -30 -3 -57 -8 -61 -11 -10 -5 -232 -4
-287 2 -398 43 -729 265 -900 602 -38 75 -77 192 -86 253 -3 25 -10 59 -14 77
-9 33 -8 344 2 378 3 11 10 42 16 68 59 256 228 496 451 642 178 116 395 187
595 194 38 1 72 4 74 7 2 2 7 2 10 -1 4 -2 40 -5 80 -6z"/>
</g>
</svg>
